<svg width="1800" height="1200" viewBox="0 0 1800 1200" fill="none" xmlns="http://www.w3.org/2000/svg">
  <rect width="1800" height="1200" fill="#cfd7d7"/>
  <rect y="760" width="1800" height="440" fill="#6f7d68"/>
  <path d="M0 828C187 775 381 772 585 820C794 869 1013 875 1224 815C1460 748 1646 749 1800 782V1200H0V828Z" fill="#839073"/>
  <path d="M0 1002C217 955 418 957 654 1008C835 1047 1038 1058 1260 1017C1441 983 1622 983 1800 1018V1200H0V1002Z" fill="#b5a983"/>
  <path d="M0 1140C196 1102 383 1103 582 1140C774 1176 975 1183 1184 1146C1392 1109 1593 1108 1800 1145" stroke="#5b503e" stroke-width="16" stroke-linecap="round"/>
  <path d="M468 934C596 850 770 814 916 812C1110 810 1280 852 1421 942" stroke="#dfd5c2" stroke-width="28" stroke-linecap="round"/>
  <path d="M486 931C599 863 759 833 903 831C1073 829 1238 861 1368 934" stroke="#c3b596" stroke-width="18" stroke-linecap="round"/>
  <rect x="270" y="338" width="1260" height="436" fill="#72685f"/>
  <rect x="264" y="770" width="1272" height="122" fill="#e8e5de"/>
  <rect x="264" y="778" width="1272" height="155" fill="#d9d5cd"/>
  <rect x="318" y="515" width="254" height="265" fill="#272727" opacity="0.82"/>
  <rect x="778" y="547" width="394" height="205" fill="#171717"/>
  <rect x="802" y="570" width="347" height="160" fill="#48382f"/>
  <path d="M904 705L958 669L958 684L998 656L998 672L1041 642L1041 655L1084 626" stroke="#cfb291" stroke-width="7"/>
  <path d="M271 353H1531" stroke="#f4f2ee" stroke-width="13" stroke-linecap="square"/>
  <path d="M338 920H1461" stroke="#cabfa7" stroke-width="10" stroke-linecap="square"/>
  <path d="M521 0C548 163 553 340 524 544C490 789 412 1015 336 1200" stroke="#504940" stroke-width="32" stroke-linecap="round"/>
  <path d="M648 0C657 148 649 291 615 455C590 579 549 694 486 816" stroke="#eef0ea" stroke-width="20" stroke-linecap="round"/>
  <path d="M172 210C298 276 426 344 555 433" stroke="#293327" stroke-width="20" stroke-linecap="round"/>
  <path d="M1054 130C1041 293 1051 445 1090 614C1139 822 1239 1016 1382 1200" stroke="#3d3d35" stroke-width="28" stroke-linecap="round"/>
  <path d="M939 262C1045 301 1169 355 1305 438" stroke="#2f372d" stroke-width="18" stroke-linecap="round"/>
  <path d="M1276 194C1400 253 1527 332 1646 435" stroke="#243022" stroke-width="18" stroke-linecap="round"/>
  <path d="M1524 167C1507 328 1514 489 1538 667C1565 872 1616 1047 1696 1200" stroke="#494338" stroke-width="24" stroke-linecap="round"/>
  <path d="M146 1057C284 1024 444 1028 625 1071" stroke="#4d4334" stroke-width="10" stroke-linecap="round"/>
  <path d="M1294 1072C1442 1047 1598 1047 1750 1076" stroke="#4d4334" stroke-width="10" stroke-linecap="round"/>
  <rect width="1800" height="1200" fill="url(#paint0_linear)" fill-opacity="0.32"/>
  <defs>
    <linearGradient id="paint0_linear" x1="900" y1="0" x2="900" y2="1200" gradientUnits="userSpaceOnUse">
      <stop stop-color="#0d0d0d" stop-opacity="0"/>
      <stop offset="1" stop-color="#0d0d0d"/>
    </linearGradient>
  </defs>
</svg>
