<svg width="1600" height="1200" viewBox="0 0 1600 1200" fill="none" xmlns="http://www.w3.org/2000/svg">
  <rect width="1600" height="1200" rx="56" fill="#EEF3FF"/>
  <rect x="72" y="72" width="1456" height="1056" rx="42" fill="white"/>
  <rect x="122" y="126" width="260" height="948" rx="28" fill="#0F172A"/>
  <rect x="164" y="190" width="176" height="22" rx="11" fill="#60A5FA"/>
  <rect x="164" y="260" width="120" height="18" rx="9" fill="#E2E8F0"/>
  <rect x="164" y="302" width="136" height="18" rx="9" fill="#334155"/>
  <rect x="164" y="344" width="110" height="18" rx="9" fill="#334155"/>
  <rect x="164" y="386" width="144" height="18" rx="9" fill="#334155"/>
  <rect x="432" y="160" width="1048" height="110" rx="24" fill="#F8FAFC"/>
  <rect x="472" y="198" width="228" height="22" rx="11" fill="#111827"/>
  <rect x="1214" y="192" width="220" height="34" rx="17" fill="#DBEAFE"/>
  <rect x="432" y="310" width="502" height="314" rx="30" fill="#111827"/>
  <path d="M492 538C568 450 657 406 738 428C797 444 845 507 874 564" stroke="#60A5FA" stroke-width="16" stroke-linecap="round"/>
  <path d="M492 564C585 522 654 520 710 548C769 577 820 578 874 542" stroke="#93C5FD" stroke-width="12" stroke-linecap="round"/>
  <rect x="972" y="310" width="508" height="314" rx="30" fill="#F8FAFC"/>
  <rect x="1014" y="362" width="188" height="20" rx="10" fill="#111827"/>
  <rect x="1014" y="414" width="308" height="18" rx="9" fill="#CBD5E1"/>
  <rect x="1014" y="454" width="246" height="18" rx="9" fill="#CBD5E1"/>
  <rect x="1014" y="494" width="216" height="18" rx="9" fill="#CBD5E1"/>
  <circle cx="1366" cy="466" r="70" fill="#DBEAFE"/>
  <path d="M1366 421V466L1400 488" stroke="#2563EB" stroke-width="14" stroke-linecap="round" stroke-linejoin="round"/>
  <rect x="432" y="662" width="1048" height="366" rx="30" fill="#F8FAFC"/>
  <rect x="476" y="710" width="244" height="24" rx="12" fill="#111827"/>
  <rect x="476" y="770" width="956" height="34" rx="17" fill="#E2E8F0"/>
  <rect x="476" y="822" width="786" height="34" rx="17" fill="#BFDBFE"/>
  <rect x="476" y="874" width="632" height="34" rx="17" fill="#E2E8F0"/>
  <rect x="476" y="926" width="872" height="34" rx="17" fill="#DBEAFE"/>
</svg>
