<svg width="1200" height="900" viewBox="0 0 1200 900" fill="none" xmlns="http://www.w3.org/2000/svg">
  <rect width="1200" height="900" fill="#DDD8CF"/>
  <rect y="670" width="1200" height="230" fill="#A29A8C"/>
  <rect x="94" y="266" width="1012" height="322" fill="#C9C2B5"/>
  <rect x="154" y="324" width="288" height="188" fill="#171717"/>
  <rect x="468" y="324" width="234" height="188" fill="#2B2926"/>
  <rect x="728" y="324" width="224" height="188" fill="#4A4138"/>
  <rect x="978" y="324" width="68" height="188" fill="#1E1E1E"/>
  <path d="M0 744C162 706 294 699 432 725C583 753 722 761 872 730C995 705 1107 705 1200 719V900H0V744Z" fill="#BBB39F"/>
  <path d="M114 198H1082" stroke="#EDE8DF" stroke-width="22" stroke-linecap="square"/>
  <path d="M0 900L1200 900" stroke="#7A756D" stroke-width="32" stroke-linecap="square"/>
  <rect width="1200" height="900" fill="url(#paint0_linear)" fill-opacity="0.14"/>
  <defs>
    <linearGradient id="paint0_linear" x1="600" y1="0" x2="600" y2="900" gradientUnits="userSpaceOnUse">
      <stop stop-color="#0F0F0F" stop-opacity="0"/>
      <stop offset="1" stop-color="#0F0F0F"/>
    </linearGradient>
  </defs>
</svg>
