<svg width="1200" height="900" viewBox="0 0 1200 900" fill="none" xmlns="http://www.w3.org/2000/svg">
  <rect width="1200" height="900" fill="#D8D9D3"/>
  <rect y="630" width="1200" height="270" fill="#7A806A"/>
  <rect x="170" y="240" width="860" height="360" fill="#6B635A"/>
  <rect x="158" y="590" width="884" height="98" fill="#E5E0D7"/>
  <rect x="460" y="392" width="280" height="150" fill="#1B1B1B"/>
  <rect x="480" y="410" width="240" height="114" fill="#514138"/>
  <path d="M0 700C138 661 277 654 427 690C557 721 692 730 835 700C961 673 1082 672 1200 695V900H0V700Z" fill="#B8AA84"/>
  <path d="M258 0C283 111 290 234 272 372C250 540 207 725 154 900" stroke="#5E564C" stroke-width="24" stroke-linecap="round"/>
  <path d="M318 0C328 123 322 251 296 385" stroke="#EDECE7" stroke-width="18" stroke-linecap="round"/>
  <path d="M96 170C182 214 277 259 392 317" stroke="#31372E" stroke-width="16" stroke-linecap="round"/>
  <rect width="1200" height="900" fill="url(#paint0_linear)" fill-opacity="0.18"/>
  <defs>
    <linearGradient id="paint0_linear" x1="600" y1="0" x2="600" y2="900" gradientUnits="userSpaceOnUse">
      <stop stop-color="#0F0F0F" stop-opacity="0"/>
      <stop offset="1" stop-color="#0F0F0F"/>
    </linearGradient>
  </defs>
</svg>
